<?xml version="1.0" encoding="UTF-8" standalone="no"?>
<!-- Generator: Adobe Illustrator 22.0.1, SVG Export Plug-In . SVG Version: 6.00 Build 0)  -->

<svg
   version="1.1"
   x="0px"
   y="0px"
   viewBox="0 0 1050 200"
   style="enable-background:new 0 0 1050 200;"
   xml:space="preserve"
   id="svg235"
   sodipodi:docname="blue.svg"
   inkscape:version="1.2.1 (9c6d41e4, 2022-07-14)"
   xmlns:inkscape="http://www.inkscape.org/namespaces/inkscape"
   xmlns:sodipodi="http://sodipodi.sourceforge.net/DTD/sodipodi-0.dtd"
   xmlns="http://www.w3.org/2000/svg"
   xmlns:svg="http://www.w3.org/2000/svg"><defs
   id="defs239" /><sodipodi:namedview
   id="namedview237"
   pagecolor="#ffffff"
   bordercolor="#000000"
   borderopacity="0.25"
   inkscape:showpageshadow="2"
   inkscape:pageopacity="0.0"
   inkscape:pagecheckerboard="0"
   inkscape:deskcolor="#d1d1d1"
   showgrid="false"
   inkscape:zoom="1.0157045"
   inkscape:cx="502.11453"
   inkscape:cy="111.7451"
   inkscape:window-width="1390"
   inkscape:window-height="791"
   inkscape:window-x="0"
   inkscape:window-y="25"
   inkscape:window-maximized="0"
   inkscape:current-layer="svg235" />
<style
   type="text/css"
   id="style171">
	.st0{fill:#009CDE;}
	.st1{fill:#FFFFFF;}
	.st2{filter:url(#Adobe_OpacityMaskFilter);}
	.st3{opacity:0.678;mask:url(#e_1_);fill:#FFFFFF;enable-background:new    ;}
	.st4{filter:url(#Adobe_OpacityMaskFilter_1_);}
	.st5{opacity:0.696;mask:url(#g_1_);fill:#FFFFFF;enable-background:new    ;}
	.st6{filter:url(#Adobe_OpacityMaskFilter_2_);}
	.st7{mask:url(#i_1_);fill:#FFFFFF;}
</style>
<g
   id="button">
	<path
   id="blue"
   class="st0"
   d="M1018,200H32c-17.7,0-32-14.3-32-32L0,32C0,14.3,14.3,0,32,0l986,0c17.7,0,32,14.3,32,32v136   C1050,185.7,1035.7,200,1018,200z" />
</g>
<g
   id="donate">
	<g
   id="g193">
		<path
   class="st1"
   d="M73.3,110.6c0-13.1,6.8-21.4,17.2-21.4c5.9,0,10.6,3.1,12.8,7.7h0.2V79.3c0-3.3,2-5.1,4.8-5.1    s4.9,1.8,4.9,5.1v47.9c0,3.1-2,4.9-4.8,4.9s-4.9-1.7-4.9-4.9V124h-0.2c-2,4.8-6.4,8-12.9,8C80,132,73.3,123.8,73.3,110.6z     M103.5,110.6c0-8.1-4-13.4-10.2-13.4c-6.3,0-10.2,5.2-10.2,13.4c0,8.2,3.9,13.4,10.2,13.4C99.5,124,103.5,118.8,103.5,110.6z"
   id="path175" />
		<path
   class="st1"
   d="M205.5,131.7c-3.3,0-5.2-2-5.2-5.7v-19.7c0-5.4-2.7-8.5-7.5-8.5c-5.4,0-8.7,3.9-8.7,10.4v17.8    c0,3.6-1.9,5.7-5.2,5.7s-5.2-2-5.2-5.7V95c0-3.4,2-5.5,5.1-5.5c3.1,0,4.9,1.8,5,5.2v2.5h0.5c1.6-4.9,6.3-8,12.3-8    c8.8,0,13.8,5.2,13.8,14.3v22.5C210.6,129.7,208.8,131.7,205.5,131.7z"
   id="path177" />
		<path
   class="st1"
   d="M232,131.9c-8.1,0-13.6-5.1-13.6-12.6c0-7.7,5.7-12.4,15.1-12.4h9.8v-3.4c0-4.2-2.6-6.4-7.3-6.4    c-3.1,0-5.4,1.2-7.7,3.2c-1.2,0.9-2.3,1.4-3.9,1.4c-2.3,0-3.7-1.5-3.7-3.6c0-2.4,1.7-4.9,5.3-6.7c2.6-1.4,6.1-2.1,10.6-2.1    c10.9,0,17,5.2,17,14.3v22.7c0,3.5-1.8,5.5-5,5.5c-2.7,0-4.5-1.5-4.8-4.2v-1.4h-0.5C241.1,129.8,237,131.9,232,131.9z     M235.4,124.5c4.5,0,7.9-3,7.9-7v-4.3h-8c-4.2,0-6.7,2-6.7,5.4C228.6,122.1,231.4,124.5,235.4,124.5z"
   id="path179" />
		<path
   class="st1"
   d="M266.3,98.3h-2.1c-2.8,0-4.4-1.5-4.4-4s1.6-4,4.4-4h2.3v-5.4c0-3.6,1.8-5.5,5-5.5c3.2,0,5,2,5,5.5v5.4h4.1    c2.8,0,4.4,1.5,4.4,4s-1.6,4-4.4,4h-4v20.9c0,3.8,1,5,4.1,5c1.1,0,1.8-0.2,2.7-0.2c1.8,0,3,1.2,3,3.1c0,1.5-0.7,2.8-2.1,3.7    c-1.4,0.9-3.6,1.4-6.4,1.4c-8.2,0-11.7-3.4-11.7-11.9V98.3z"
   id="path181" />
		<path
   class="st1"
   d="M291.3,108c0-11.3,7.5-19,18.6-19c10.5,0,18,7.5,18,17.7c0,4.6-1.3,6.2-5.2,6.2h-21v1.8    c0,5.8,3.7,9.5,9.8,9.5c3.2,0,5.5-0.8,7.3-2.3c2-1.5,2.7-2.1,4.3-2.1c2.1,0,3.6,1.5,3.6,3.8c0,1.8-1.1,3.6-3.1,5    c-2.7,2.3-7.5,3.7-12.8,3.7c-12.1,0-19.6-7.1-19.6-18.9V108z M318.1,106.4L318.1,106.4c0-5.7-3.1-9.4-8-9.4    c-5.1,0-8.3,3.8-8.3,9.3v0.1H318.1z"
   id="path183" />
		<path
   class="st1"
   d="M359.5,97.1c-0.3-1.2-0.4-1.9-0.4-2.5c0-2.9,2.1-5,5.2-5c2.7,0,4.5,1.8,5,5.1l5.2,25.9h0.5l6.2-24.5    c1.2-4.8,2.9-6.6,6.3-6.6c3.4,0,5.2,1.8,6.4,6.6l6.3,24.5h0.5l5.4-25.9c0.6-3.2,2.4-5.1,5-5.1c3.1,0,5,2,5,4.7    c0,0.6-0.2,1.5-0.5,2.7l-7.2,26.5c-1.7,6.2-3.7,8.2-7.3,8.2c-3.9,0-5.9-2-7.5-8.2l-6-21.8h-0.4l-5.8,21.8    c-1.6,6.3-3.4,8.2-7.3,8.2c-3.8,0-5.9-2.1-7.5-8.2L359.5,97.1z"
   id="path185" />
		<path
   class="st1"
   d="M426.9,74c3.4,0,5.9,2.3,5.9,5.4s-2.5,5.4-5.9,5.4c-3.3,0-5.8-2.3-5.8-5.4S423.6,74,426.9,74z M426.9,131.7    c-3.2,0-5.1-2-5.1-5.7V95.2c0-3.8,2-5.7,5.2-5.7c3.2,0,5.1,2,5.1,5.7v30.9C432.1,129.8,430.1,131.7,426.9,131.7z"
   id="path187" />
		<path
   class="st1"
   d="M444,98.3h-2.1c-2.8,0-4.4-1.5-4.4-4s1.6-4,4.4-4h2.3v-5.4c0-3.6,1.8-5.5,5-5.5c3.2,0,5,2,5,5.5v5.4h4.1    c2.8,0,4.4,1.5,4.4,4s-1.6,4-4.4,4h-4v20.9c0,3.8,1,5,4.1,5c1.1,0,1.8-0.2,2.7-0.2c1.8,0,3,1.2,3,3.1c0,1.5-0.7,2.8-2.1,3.7    c-1.4,0.9-3.6,1.4-6.4,1.4c-8.2,0-11.7-3.4-11.7-11.9V98.3z"
   id="path189" />
		<path
   class="st1"
   d="M501.1,131.7c-3.3,0-5.2-2-5.2-5.7v-19.6c0-5.4-2.8-8.5-7.6-8.5c-5.3,0-8.8,4-8.8,10.4v17.8    c0,3.6-1.9,5.7-5.2,5.7s-5.1-2-5.1-5.7V80.6c0-3.6,1.8-5.7,5.2-5.7c3.3,0,5.1,2.1,5.1,5.7v16.6h0.5c1.4-4.7,6.5-8,12.4-8    c8.6,0,13.8,5.4,13.8,14.4v22.4C506.3,129.7,504.4,131.7,501.1,131.7z"
   id="path191" />
	</g>
	<path
   id="heart_2_"
   class="st1"
   d="M154.3,89.2c-4.3,0-8.5,2.1-10.8,6.7c-2.3-4.6-6.5-6.7-10.8-6.7c-6.7,0-12.7,4.7-12.7,13.1   c0,14.2,19.4,21.4,23.5,29.9c4.1-8.5,23.5-15.7,23.5-29.9C167,93.3,160.3,89.2,154.3,89.2z M150.2,99.2c3,0,5.7,2,5.7,6   c0,6.3-8.3,10.6-12.8,15.2c-4.4-4.6-12.8-8.9-12.8-15.2c0-3.9,2.6-6,5.7-6c4.1,0,6.2,4.6,7,6.8C144,103.8,146.2,99.2,150.2,99.2z" />
</g>

<path
   style="fill:#000000;stroke-width:1.34946"
   d="m 578.00784,161.13105 c -1.01817,-2.65331 0.59254,-102.846315 1.6817,-104.608605 1.0611,-1.71691 42.07116,-1.4615 48.42153,0.30157 6.98296,1.93869 13.60595,8.70792 15.53729,15.88039 2.19794,8.1625 0.48108,36.895865 -2.63792,44.148375 -1.30618,3.03721 -4.20297,6.82392 -6.43732,8.41492 -5.44776,3.87914 -16.71099,6.13779 -25.47242,5.10806 l -7.15763,-0.84124 -0.37895,16.53781 -0.37896,16.5378 -11.15434,0.39229 c -9.42396,0.33143 -11.28909,0.0411 -12.02298,-1.87137 z m 39.76402,-55.67046 c 1.26228,-0.80082 1.63425,-4.42184 1.34946,-13.136595 l -0.39316,-12.03103 -8.43413,-0.40176 -8.43414,-0.40175 v 13.55901 13.559005 l 7.08468,-0.0207 c 3.89657,-0.0113 7.86885,-0.51816 8.82729,-1.12622 z"
   id="path690" /><path
   style="fill:#000000;stroke-width:1.34946"
   d="m 671.32893,163.44124 c -12.31884,-3.13823 -16.74085,-10.84361 -17.79145,-31.00175 -0.93941,-18.02474 0.8907,-27.55468 6.62826,-34.515335 5.52862,-6.70718 11.01238,-8.85969 22.57103,-8.85969 7.82746,0 9.67203,-0.42965 10.78675,-2.51251 0.93651,-1.74988 0.84852,-3.17397 -0.28989,-4.69174 -1.28803,-1.71725 -4.63834,-2.2574 -15.80389,-2.54797 l -14.16934,-0.36874 v -11.47042 -11.47043 h 18.89246 c 21.96211,0 26.89942,1.58854 32.84487,10.56758 l 3.59059,5.42266 0.40528,43.351195 c 0.49878,53.3541 2.9308,48.50191 -24.49752,48.87559 -10.49979,0.14305 -20.92501,-0.20725 -23.16715,-0.77844 z m 23.59634,-25.70743 c 1.94636,-3.63682 1.77905,-20.75821 -0.22242,-22.75967 -2.0995,-2.09951 -13.55425,-2.09951 -15.65375,0 -2.16355,2.16354 -2.16355,21.58698 0,23.75052 0.89064,0.89065 4.51282,1.61936 8.04929,1.61936 4.97597,0 6.74582,-0.59024 7.82688,-2.61021 z"
   id="path692" /><path
   style="fill:#000000;stroke-width:1.34946"
   d="m 738.15552,151.81444 c 0,-6.30873 0.15181,-11.55276 0.33736,-11.6534 0.18555,-0.10063 7.61815,-0.55608 16.51687,-1.01209 14.5695,-0.74662 16.22908,-1.08882 16.67765,-3.43886 0.80327,-4.20826 -3.51315,-6.16177 -13.61489,-6.16177 -9.64603,0 -15.19211,-1.90754 -21.05731,-7.24252 -6.52872,-5.93854 -6.95645,-8.31357 -6.95645,-38.626735 v -28.46029 l 11.13306,0.39194 11.13305,0.39194 0.67474,24.29031 0.67473,24.290315 h 8.7715 8.7715 l 0.67473,-24.290315 0.67473,-24.29031 11.13306,-0.39194 11.13306,-0.39194 -0.0296,44.24945 c -0.0269,40.133015 -0.2614,44.751595 -2.5209,49.647295 -2.88217,6.2448 -7.31663,10.68318 -12.71876,12.72999 -2.08937,0.79164 -12.26094,1.43935 -22.60348,1.43935 h -18.80461 z"
   id="path694" /><path
   style="fill:#000000;stroke-width:1.41687"
   d="m 817.12231,157.50189 c -1.30464,-1.19279 -1.77817,-12.53922 -1.77817,-42.60777 V 73.912068 l -8.52041,-0.406303 -8.5204,-0.406303 V 61.602539 50.105616 l 7.84881,-1.032709 c 9.67288,-1.272721 15.07004,-3.755035 23.3668,-10.747083 8.84724,-7.455967 11.62882,-6.721155 12.19914,3.222657 l 0.44225,7.711138 8.44861,0.404345 8.44859,0.404336 v 11.515586 11.515576 l -8.52041,0.406303 -8.5204,0.406303 v 40.982052 c 0,30.06855 -0.47352,41.41498 -1.77818,42.60777 -1.02379,0.93603 -5.92723,1.62573 -11.55811,1.62573 -5.63088,0 -10.53432,-0.6897 -11.55812,-1.62573 z"
   id="path696" /><path
   style="fill:#000000;stroke-width:1.34946"
   d="m 875.44785,163.70114 c -2.22682,-0.58093 -2.35468,-4.00183 -2.0242,-54.15929 l 0.35276,-53.539195 h 10.7957 c 9.71182,0 10.92211,0.28784 12.05487,2.86695 l 1.25917,2.86695 6.02649,-3.20432 c 8.88501,-4.7242 19.35415,-3.65604 26.78125,2.73248 l 3.61818,3.11223 5.94035,-4.18714 c 11.83987,-8.34551 28.3742,-3.94628 36.38458,9.6807 l 3.74688,6.37408 v 42.894155 c 0,48.50672 0.75667,45.44041 -11.22177,45.47492 -13.19378,0.038 -12.39381,2.69638 -12.39381,-41.18539 0,-36.612905 -0.12642,-38.538605 -2.69892,-41.111115 -3.34496,-3.34496 -9.65703,-3.49492 -12.55006,-0.29815 -1.86982,2.06613 -2.22814,7.78762 -2.5707,41.048165 -0.21893,21.25607 -0.86627,39.11471 -1.43855,39.68586 -1.79503,1.79151 -16.63125,2.26845 -19.68733,0.63289 -2.84686,-1.52359 -2.88775,-2.08936 -2.88775,-39.95765 0,-36.612905 -0.12642,-38.538605 -2.69892,-41.111115 -3.1494,-3.14939 -9.16241,-3.51535 -12.89933,-0.78506 -2.47227,1.80629 -2.64062,4.10033 -2.99559,40.821215 -0.33273,34.41996 -0.63485,39.10191 -2.61948,40.59419 -2.14038,1.60939 -13.23908,2.06712 -18.27382,0.75364 z"
   id="path698" /><g
   id="g551"
   transform="matrix(8.106758,0,0,7.9082725,582.06393,-89.697191)"><path
     fill="#0d47a1"
     d="M 5.446,18.01 H 0.548 c -0.277,0 -0.502,0.167 -0.503,0.502 L 0,30.519 c -0.001,0.3 0.196,0.45 0.465,0.45 0.735,0 1.335,0 2.07,0 C 2.79,30.969 3,30.844 3,30.594 3,29.483 3,28.111 3,27 l 2.126,0.009 c 1.399,-0.092 2.335,-0.742 2.725,-2.052 0.117,-0.393 0.14,-0.733 0.14,-1.137 l 0.11,-2.862 C 7.999,18.946 6.949,18.181 5.446,18.01 Z M 4.995,23.465 C 4.995,23.759 4.754,24 4.461,24 H 3 v -3 h 1.461 c 0.293,0 0.534,0.24 0.534,0.535 z M 13.938,18 h -3.423 c -0.26,0 -0.483,0.08 -0.483,0.351 0,0.706 0,1.495 0,2.201 0.028,0.294 0.231,0.448 0.52,0.448 h 2.855 c 0.594,0 0.532,0.972 0,1 H 11.84 C 10.101,22 9,23.562 9,25.137 9,25.557 9.005,26.543 9,27 8.992,27.651 8.986,28.311 9.112,28.899 9.336,29.939 10.235,31 11.597,31 h 4.228 c 0.541,0 1.173,-0.474 1.173,-1.101 V 21.625 C 17.026,19.443 15.942,18.117 13.938,18 Z M 14,27.55 C 14,27.798 13.798,28 13.552,28 H 12.447 C 12.201,28 12,27.798 12,27.55 V 25.449 C 12,25.202 12.201,25 12.447,25 h 1.105 C 13.798,25 14,25.202 14,25.449 Z m 4,-8.956 v 5.608 c 0.124,1.6 1.608,2.798 3.171,2.798 h 1.414 c 0.597,0 0.561,0.969 0,0.969 H 19.49 c -0.339,0 -0.462,0.177 -0.462,0.476 v 2.152 c 0,0.226 0.183,0.396 0.422,0.396 h 2.959 c 2.416,0 3.592,-1.159 3.591,-3.757 v -8.84 c 0,-0.276 -0.175,-0.383 -0.342,-0.383 h -2.302 c -0.224,0 -0.355,0.243 -0.355,0.422 v 5.218 c 0,0.199 -0.111,0.316 -0.29,0.316 H 21.41 c -0.264,0 -0.409,-0.143 -0.409,-0.396 V 18.515 C 21,18.218 20.88,18 20.552,18 19.774,18 19.11,18 18.332,18 18.067,18 18,18.263 18,18.594 Z"
     id="path539" /><path
     fill="#00adee"
     d="M 27.038,20.569 V 18.431 C 27.038,18.194 27.232,18 27.468,18 H 28 c 1.368,-0.285 1.851,-0.62 2.688,-1.522 0.514,-0.557 0.966,-0.704 1.298,-0.113 L 32,18 h 1.569 C 33.807,18 34,18.194 34,18.431 v 2.138 C 34,20.805 33.806,21 33.569,21 H 32 v 9.569 C 32,30.807 31.806,31 31.57,31 H 29.43 C 29.193,31 29,30.807 29,30.569 V 21 h -1.531 c -0.235,0 -0.431,-0.194 -0.431,-0.431 z m 15.953,9.896 c 0,0.294 -0.244,0.535 -0.539,0.535 h -1.91 c -0.297,0 -0.54,-0.241 -0.54,-0.535 v -6.623 -1.871 c 0,-1.284 -2.002,-1.284 -2.002,0 v 8.494 C 38,30.759 37.758,31 37.461,31 H 35.54 C 35.243,31 35,30.759 35,30.465 V 18.537 C 35,18.241 35.243,18 35.54,18 h 1.976 c 0.297,0 0.539,0.241 0.539,0.537 v 0.292 c 1.32,-1.266 3.302,-0.973 4.416,0.228 2.097,-2.405 5.69,-0.262 5.523,2.375 0,2.916 -0.026,6.093 -0.026,9.033 0,0.294 -0.244,0.535 -0.538,0.535 H 45.539 C 45.242,31 45,30.759 45,30.465 c 0,-2.786 0,-5.701 0,-8.44 0,-1.307 -2,-1.37 -2,0 v 8.44 z"
     id="path541" /></g></svg>
